<svg width="1386" height="538" viewBox="0 0 1386 538" fill="none" xmlns="http://www.w3.org/2000/svg">
<g filter="url(#filter0_ddddddd_173_6)">
<path d="M1341.45 313.255C1341.27 310.903 1341.04 308.571 1340.77 306.26L1336.33 282.704L1336.11 281.844L1335.93 281.105C1335.79 280.585 1335.65 280.106 1335.51 279.676L1334.69 276.848C1333.58 273.09 1332.54 269.342 1331.19 265.574C1329.84 261.807 1328.68 258.079 1327.14 254.351C1325.6 250.624 1324.25 246.896 1322.51 243.208C1315.82 228.021 1307.42 213.671 1297.49 200.444C1287.26 186.86 1275.34 174.692 1262.02 164.246C1248.85 153.972 1234.48 145.401 1219.24 138.732C1204.66 132.313 1189.47 127.446 1173.91 124.211C1159.12 121.132 1144.13 119.181 1129.06 118.375L1123.54 118.105C1121.69 118.015 1119.85 117.915 1118.04 117.925L1107.12 117.805C1103.51 117.805 1099.93 117.995 1096.32 118.095C1094.52 118.155 1092.7 118.165 1090.93 118.295L1085.61 118.634L1080.27 118.984L1077.62 119.164L1074.97 119.404L1064.44 120.463C1062.69 120.623 1060.95 120.853 1059.22 121.073L1054.02 121.742C1050.55 122.222 1047.06 122.632 1043.66 123.212L1033.42 124.871C1029.98 125.42 1026.64 126.14 1023.25 126.749C1016.45 127.969 1009.79 129.508 1003.11 130.977L1000.62 131.526L999.36 131.806L997.984 132.136L992.473 133.525L989.712 134.225L987.03 135.004L981.656 136.533C978.139 137.613 974.681 138.742 971.203 139.851C967.725 140.961 964.385 142.21 961.025 143.419C947.644 148.336 934.853 153.763 922.444 159.529C910.036 165.296 897.991 171.292 886.192 177.518C874.393 183.745 862.82 190.101 851.384 196.597C828.562 209.589 806.3 222.901 784.313 236.372L751.46 256.51L746.42 259.628L733.776 267.413L719.039 261.117L705.177 255.121C658.589 234.607 611.963 213.923 565.296 193.069C518.611 172.282 471.964 151.304 424.866 130.817C423.99 130.439 423.009 130.402 422.108 130.713C421.207 131.023 420.449 131.659 419.979 132.5C419.509 133.341 419.358 134.328 419.557 135.274C419.755 136.221 420.288 137.06 421.054 137.633C441.813 153.023 462.955 167.734 484.245 182.255C494.865 189.541 505.574 196.687 516.292 203.802C527.011 210.918 537.798 217.894 548.575 224.889C583.622 247.482 619.053 269.469 654.866 290.849L675.812 302.842L656.084 314.904C633.724 328.226 611.295 341.158 588.649 353.371C577.705 359.287 566.721 365.084 555.659 370.62C544.596 376.157 533.505 381.464 522.324 386.52C499.964 396.514 477.387 405.639 454.536 412.674C431.684 419.71 408.587 425.067 385.598 427.156C374.225 428.224 362.79 428.421 351.389 427.745C348.55 427.645 345.71 427.296 342.832 427.026C339.953 426.756 337.163 426.356 334.344 425.956C328.714 425.167 323.213 424.047 317.75 422.768C307.134 420.217 296.861 416.364 287.157 411.295C285.978 410.666 284.838 409.966 283.689 409.297L281.94 408.297C281.37 407.957 280.82 407.578 280.27 407.198C279.15 406.488 278.02 405.769 276.939 405.019L273.727 402.671C272.617 401.911 271.644 401.012 270.603 400.172C269.561 399.333 268.54 398.513 267.587 397.584L264.639 394.875L261.849 391.987C258.166 388.044 254.805 383.803 251.799 379.305C248.761 374.675 246.056 369.829 243.703 364.804C241.314 359.588 239.288 354.208 237.642 348.704C237.229 347.304 236.738 345.925 236.394 344.496L235.244 340.239C234.596 337.371 233.889 334.482 233.368 331.544C231.148 319.566 229.948 307.415 229.782 295.226C229.654 287.381 229.871 279.476 230.362 271.561L234.085 238.441C234.336 239.206 234.628 239.957 234.96 240.69C234.96 240.69 289.161 379.075 362.029 369.281C362.029 369.281 375.891 369.361 357.117 321.86C339.177 276.428 303.377 214.096 288.729 63.3382L286.833 44L271.467 58.9908C231.108 102.964 121.979 219.892 71.1371 256.4C8.12313 301.732 71.6185 303.371 93.7333 300.373C115.848 297.375 178.862 282.384 212.982 242.628C214.436 240.94 215.812 239.291 217.128 237.632L209.22 269.542C205.044 290.749 202.922 312.696 204.435 335.232C205.297 349.531 207.962 363.658 212.363 377.266C214.684 384.275 217.518 391.096 220.842 397.674C224.292 404.355 228.268 410.742 232.729 416.772C237.248 422.832 242.277 428.48 247.761 433.652L251.936 437.469C253.361 438.689 254.815 439.858 256.269 441.057C256.986 441.657 257.713 442.256 258.46 442.826L260.719 444.475C262.222 445.584 263.716 446.714 265.248 447.773C268.372 449.772 271.457 451.91 274.67 453.699C276.281 454.599 277.883 455.548 279.504 456.418L284.416 458.916L286.872 460.155L289.358 461.265L294.348 463.493C296.028 464.203 297.718 464.823 299.398 465.492C301.078 466.162 302.768 466.861 304.458 467.411C311.246 469.779 318.084 471.878 324.961 473.557C328.38 474.377 331.838 475.246 335.257 475.876C338.676 476.505 342.134 477.285 345.652 477.775C359.575 479.984 373.648 481.067 387.739 481.013C415.69 481.013 443.002 477.015 469.449 471.169C495.591 465.157 521.328 457.45 546.502 448.093C558.947 443.496 571.27 438.652 583.472 433.562C595.664 428.465 607.669 423.128 619.626 417.681C661.055 398.573 701.168 377.596 740.525 356.129L755.144 348.074L772.69 358.068L781.247 362.625L815.486 380.794C826.931 386.79 838.504 392.537 850.028 398.423L867.388 407.138L884.905 415.573L902.432 423.987L911.215 428.165C914.162 429.594 917.11 430.873 920.057 432.232L937.839 440.228L955.661 448.223C957.174 448.882 958.608 449.552 960.16 450.221L964.827 452.22C967.941 453.529 971.026 454.879 974.199 456.118L983.65 459.876L993.21 463.463C1005.99 468.127 1019.02 472.431 1032.27 476.375C1045.53 480.32 1059.06 483.651 1072.87 486.369C1076.33 487.049 1079.74 487.749 1083.29 488.308C1086.84 488.868 1090.27 489.527 1093.79 490.017L1099.1 490.777L1104.43 491.406C1106.22 491.616 1107.99 491.856 1109.78 492.026L1115.17 492.526C1122.38 493.205 1129.66 493.525 1137 493.835C1144.34 494.145 1151.74 493.995 1159.3 493.585C1174.67 492.885 1189.95 490.831 1204.97 487.449C1212.79 485.637 1220.51 483.412 1228.1 480.783C1235.93 478.016 1243.58 474.769 1251.02 471.059C1266.7 463.33 1281.13 453.221 1293.82 441.077C1307.1 428.257 1318.06 413.155 1326.19 396.464C1330.26 388.07 1333.58 379.32 1336.11 370.32C1338.59 361.392 1340.3 352.259 1341.21 343.027C1342.18 333.131 1342.26 323.166 1341.45 313.255V313.255ZM1247.33 333.523C1246.05 348.285 1239.55 362.076 1229.06 372.349C1218.4 383.232 1202.48 391.557 1183.73 396.444C1173.92 398.944 1163.93 400.566 1153.85 401.291C1148.65 401.751 1143.31 401.931 1137.93 402.041C1132.56 402.151 1127.13 402.041 1121.6 401.671L1117.46 401.451C1116.07 401.371 1114.68 401.221 1113.29 401.131L1109.14 400.782L1104.94 400.342C1102.17 400.072 1099.36 399.722 1096.54 399.343C1093.72 398.963 1090.92 398.563 1088.11 398.153C1076.82 396.434 1065.52 394.156 1054.1 391.407C1042.69 388.659 1031.32 385.591 1019.94 382.093L1011.42 379.385L1002.9 376.567C1000.06 375.647 997.228 374.568 994.398 373.618L990.135 372.119C988.72 371.62 987.187 371.03 985.763 370.49L968.187 363.864L950.552 357.278C947.605 356.179 944.657 355.15 941.71 353.97L932.927 350.492L915.361 343.557L897.775 336.661L880.229 329.455C869.107 324.888 857.957 320.461 846.826 315.794L828.09 307.839L845.99 297.955L858.566 291.109C869.641 285.112 880.697 279.229 891.733 273.46C913.838 262.067 935.874 251.073 957.763 241.809C968.698 237.202 979.573 232.944 990.243 229.347L998.181 226.788C1000.8 226.069 1003.45 225.249 1006.04 224.55L1009.91 223.55L1011.88 223.07L1013.77 222.641L1017.56 221.791L1018.55 221.591L1019.65 221.381L1021.82 220.962C1045 216.405 1068.13 212.967 1090.59 212.147L1094.79 211.957C1096.2 211.887 1097.57 211.957 1098.96 211.907C1101.72 211.907 1104.51 211.827 1107.26 211.817L1115.45 212.047C1116.83 212.047 1118.15 212.167 1119.5 212.237L1123.53 212.507C1133.87 213.198 1144.14 214.664 1154.26 216.894C1173.91 221.401 1190.99 228.937 1204.53 239.88C1211.34 245.369 1217.45 251.708 1222.7 258.749C1228.2 266.177 1232.84 274.225 1236.53 282.734C1237.58 284.873 1238.4 287.231 1239.31 289.49C1240.23 291.748 1240.98 294.157 1241.83 296.486C1242.67 298.814 1243.33 301.313 1244.06 303.761L1244.6 305.6L1244.86 306.499L1245.04 307.249C1245.28 308.248 1245.59 309.248 1245.78 310.247C1247.52 317.87 1248.05 325.73 1247.33 333.523V333.523Z" stroke="#FF26A9" stroke-width="8" stroke-miterlimit="10" stroke-linejoin="round"/>
</g>
<defs>
<filter id="filter0_ddddddd_173_6" x="0.0873947" y="0.0873947" width="1385.83" height="537.825" filterUnits="userSpaceOnUse" color-interpolation-filters="sRGB">
<feFlood flood-opacity="0" result="BackgroundImageFix"/>
<feColorMatrix in="SourceAlpha" type="matrix" values="0 0 0 0 0 0 0 0 0 0 0 0 0 0 0 0 0 0 127 0" result="hardAlpha"/>
<feOffset/>
<feGaussianBlur stdDeviation="11.9738"/>
<feColorMatrix type="matrix" values="0 0 0 0 1 0 0 0 0 0.14902 0 0 0 0 0.662745 0 0 0 0.25 0"/>
<feBlend mode="normal" in2="BackgroundImageFix" result="effect1_dropShadow_173_6"/>
<feColorMatrix in="SourceAlpha" type="matrix" values="0 0 0 0 0 0 0 0 0 0 0 0 0 0 0 0 0 0 127 0" result="hardAlpha"/>
<feOffset dx="11.9738" dy="15.965"/>
<feGaussianBlur stdDeviation="5.98689"/>
<feColorMatrix type="matrix" values="0 0 0 0 0 0 0 0 0 0 0 0 0 0 0 0 0 0 1 0"/>
<feBlend mode="normal" in2="effect1_dropShadow_173_6" result="effect2_dropShadow_173_6"/>
<feColorMatrix in="SourceAlpha" type="matrix" values="0 0 0 0 0 0 0 0 0 0 0 0 0 0 0 0 0 0 127 0" result="hardAlpha"/>
<feOffset dx="11.9738" dy="15.965"/>
<feGaussianBlur stdDeviation="1.99563"/>
<feColorMatrix type="matrix" values="0 0 0 0 0 0 0 0 0 0 0 0 0 0 0 0 0 0 1 0"/>
<feBlend mode="normal" in2="effect2_dropShadow_173_6" result="effect3_dropShadow_173_6"/>
<feColorMatrix in="SourceAlpha" type="matrix" values="0 0 0 0 0 0 0 0 0 0 0 0 0 0 0 0 0 0 127 0" result="hardAlpha"/>
<feOffset/>
<feGaussianBlur stdDeviation="15.965"/>
<feColorMatrix type="matrix" values="0 0 0 0 1 0 0 0 0 0.14902 0 0 0 0 0.662745 0 0 0 0.25 0"/>
<feBlend mode="normal" in2="effect3_dropShadow_173_6" result="effect4_dropShadow_173_6"/>
<feColorMatrix in="SourceAlpha" type="matrix" values="0 0 0 0 0 0 0 0 0 0 0 0 0 0 0 0 0 0 127 0" result="hardAlpha"/>
<feOffset/>
<feGaussianBlur stdDeviation="15"/>
<feColorMatrix type="matrix" values="0 0 0 0 1 0 0 0 0 0.14902 0 0 0 0 0.662745 0 0 0 0.25 0"/>
<feBlend mode="normal" in2="effect4_dropShadow_173_6" result="effect5_dropShadow_173_6"/>
<feColorMatrix in="SourceAlpha" type="matrix" values="0 0 0 0 0 0 0 0 0 0 0 0 0 0 0 0 0 0 127 0" result="hardAlpha"/>
<feOffset/>
<feGaussianBlur stdDeviation="19.9563"/>
<feColorMatrix type="matrix" values="0 0 0 0 1 0 0 0 0 0.14902 0 0 0 0 0.662745 0 0 0 0.25 0"/>
<feBlend mode="normal" in2="effect5_dropShadow_173_6" result="effect6_dropShadow_173_6"/>
<feColorMatrix in="SourceAlpha" type="matrix" values="0 0 0 0 0 0 0 0 0 0 0 0 0 0 0 0 0 0 127 0" result="hardAlpha"/>
<feOffset/>
<feGaussianBlur stdDeviation="7.98252"/>
<feColorMatrix type="matrix" values="0 0 0 0 1 0 0 0 0 0.14902 0 0 0 0 0.662745 0 0 0 0.25 0"/>
<feBlend mode="normal" in2="effect6_dropShadow_173_6" result="effect7_dropShadow_173_6"/>
<feBlend mode="normal" in="SourceGraphic" in2="effect7_dropShadow_173_6" result="shape"/>
</filter>
</defs>
</svg>
