<svg width="1385" height="538" viewBox="0 0 1385 538" fill="none" xmlns="http://www.w3.org/2000/svg">
<g filter="url(#filter0_ddddddd_201_3)">
<path d="M1145.49 498C1142.45 498 1139.5 498 1136.75 497.9C1127.81 497.6 1121.03 497.199 1114.64 496.599L1109.23 496.098C1108.05 495.998 1106.88 495.798 1105.79 495.698C1105.11 495.598 1104.52 495.497 1103.83 495.497L1098.52 494.897L1093.12 494.096C1089.78 493.596 1086.44 493.095 1082.51 492.394C1079.46 491.894 1076.41 491.293 1073.47 490.693L1072.09 490.392C1058.43 487.69 1044.67 484.286 1031.21 480.382C1018.34 476.578 1005.17 472.274 991.907 467.369L982.277 463.765L972.746 459.962C970.289 459.061 967.931 457.96 965.572 456.959L958.596 454.056C957.613 453.655 956.63 453.255 955.746 452.754C955.156 452.454 954.665 452.254 954.076 451.954L936.192 443.945L918.406 435.937C917.423 435.437 916.441 435.036 915.458 434.636C913.493 433.735 911.429 432.834 909.464 431.833L900.719 427.629L865.639 410.712L848.246 402.003C844.119 399.901 839.992 397.799 835.865 395.697C828.593 391.993 821.027 388.189 813.657 384.285L770.913 361.462C770.913 361.462 770.815 361.462 770.815 361.362L754.994 352.353L742.122 359.46C694.267 385.586 656.927 404.606 620.963 421.222C607.108 427.529 595.513 432.634 584.704 437.138C572.617 442.144 560.138 447.149 547.56 451.753C519.359 462.064 494.007 469.671 470.03 474.977C439.962 481.684 413.136 484.887 387.882 484.887C387.686 484.887 387.489 484.887 387.391 484.887C372.651 484.887 358.305 483.786 344.843 481.583C341.797 481.183 338.849 480.582 335.901 479.982L334.329 479.681C331.479 479.181 328.629 478.48 325.78 477.78L323.913 477.279C317.329 475.677 310.451 473.575 303.081 470.973C301.902 470.572 300.723 470.172 299.544 469.671C298.954 469.471 298.463 469.271 297.873 469.071C297.185 468.77 296.596 468.57 296.006 468.37C294.925 467.97 293.844 467.569 292.763 467.069L285.197 463.665C285.099 463.665 285.099 463.665 285.001 463.565L277.533 460.062C276.353 459.461 275.371 458.86 274.29 458.26C273.7 457.96 273.111 457.559 272.619 457.259C270.163 455.857 267.804 454.356 265.544 452.854C264.66 452.254 263.874 451.753 262.99 451.253C262.99 451.253 262.891 451.253 262.891 451.153C261.712 450.352 260.533 449.451 259.354 448.65L256.013 446.148C255.129 445.447 254.441 444.846 253.655 444.246L252.377 443.145C251.395 442.344 250.314 441.443 249.331 440.642L249.233 440.542L245.106 436.738C238.719 430.632 233.707 424.926 229.58 419.321C224.962 413.014 220.835 406.408 217.395 399.701C214.054 393.194 211.205 386.087 208.65 378.68C204.228 365.066 201.477 350.551 200.494 335.636C199.118 314.515 200.691 292.593 205.309 268.869C205.309 268.769 205.309 268.768 205.309 268.668L209.633 251.351C167.871 293.493 97.0228 303.704 93.8784 304.104C93.3871 304.204 47.6946 309.91 40.8162 291.992C37.0822 282.182 46.1224 269.569 68.723 253.353C118.739 217.317 225.158 103.402 268.492 56.1538L268.591 56.0537L283.92 41.0386C284.902 40.0375 286.376 39.7373 287.752 40.2378C289.029 40.7383 290.012 41.9395 290.11 43.3409L292.076 62.7605C304.457 190.289 332.364 255.355 350.935 298.499C354.276 306.306 357.519 313.814 360.27 320.721C370.391 346.247 372.848 362.263 367.935 369.57C365.871 372.673 363.12 373.174 362.039 373.274C344.45 375.576 326.566 369.971 308.879 356.557C294.925 345.946 281.168 330.631 267.706 310.911C252.672 288.789 241.568 265.966 235.771 252.953L233.609 271.972C233.118 279.98 232.921 287.788 233.019 295.295C233.314 308.208 234.395 320.22 236.458 331.031C236.852 333.234 237.343 335.536 237.834 337.738L238.227 339.54L239.308 343.744C239.505 344.645 239.799 345.446 240.094 346.347C240.291 346.847 240.389 347.348 240.586 347.848C242.453 353.754 244.32 358.859 246.481 363.364C248.741 368.169 251.395 372.974 254.342 377.478C257.094 381.683 260.336 385.787 263.972 389.691L266.625 392.493L269.475 395.096L269.573 395.196C270.163 395.797 270.851 396.297 271.538 396.898C271.833 397.098 272.128 397.398 272.325 397.599C272.619 397.799 273.012 398.099 273.307 398.399C273.897 398.9 274.486 399.4 275.076 399.801C275.076 399.801 275.174 399.801 275.174 399.901L278.319 402.203C279.301 402.804 280.186 403.505 281.168 404.105L281.954 404.606C282.347 404.906 282.741 405.106 283.035 405.306L284.706 406.207C285.197 406.508 285.59 406.708 286.081 407.008C286.769 407.409 287.457 407.809 288.145 408.209C297.578 413.114 307.601 416.918 317.919 419.321C324.011 420.722 329.121 421.723 334.132 422.424L335.803 422.624C338.063 422.924 340.225 423.224 342.386 423.425C343.172 423.525 343.86 423.525 344.548 423.625C346.71 423.825 348.773 424.025 350.837 424.125C361.842 424.826 373.143 424.626 384.64 423.525C405.766 421.623 428.072 416.918 452.834 409.11C472.978 402.904 494.4 394.596 520.243 383.084C530.168 378.579 540.682 373.574 553.456 367.168C563.381 362.263 574.091 356.557 586.374 349.951C606.813 338.939 628.824 326.327 653.685 311.512L667.933 302.803L652.505 293.994C617.229 272.873 581.461 250.65 545.988 227.827C543.433 226.226 540.977 224.524 538.422 222.922C530.266 217.617 521.815 212.111 513.561 206.606C501.573 198.698 491.55 191.991 481.429 184.984C464.036 173.072 441.043 157.256 418.147 140.239C414.806 137.736 414.02 132.831 416.477 129.428C418.54 126.625 422.078 125.524 425.321 126.725C425.419 126.725 425.517 126.825 425.615 126.825C462.071 142.741 498.822 159.158 534.393 174.974C545.005 179.679 555.52 184.383 566.132 189.188C620.079 213.313 664.592 233.032 706.059 251.351L719.914 257.357L732.885 262.863L749 252.953L781.82 232.732C807.369 217.016 828.692 204.404 849.032 192.792C861.512 185.685 873.008 179.378 883.916 173.672C896.886 166.866 908.776 160.96 920.371 155.654C933.932 149.348 946.608 144.043 959.185 139.438C961.347 138.637 963.509 137.936 965.769 137.136C966.948 136.735 968.226 136.235 969.405 135.834H969.503L972.058 135.033C974.711 134.233 977.364 133.332 980.017 132.531L988.075 130.229H988.173L999.179 127.526L1005.47 126.124C1010.87 124.923 1016.37 123.722 1021.98 122.721C1023.25 122.521 1024.63 122.221 1025.91 122.02C1027.97 121.62 1030.03 121.22 1032.2 120.919L1042.51 119.218C1044.97 118.817 1047.62 118.417 1050.08 118.116C1051.06 118.016 1051.95 117.816 1052.93 117.716L1058.63 117.015C1060.2 116.815 1061.87 116.615 1063.54 116.415L1076.71 115.113L1090.17 114.212C1091.45 114.112 1092.82 114.112 1094.2 114.012C1094.69 114.012 1095.18 114.012 1095.67 114.012C1096.75 114.012 1097.83 113.912 1098.92 113.912C1101.37 113.812 1104.03 113.712 1106.58 113.712L1117.59 113.812C1119.26 113.812 1121.03 113.912 1122.79 114.012L1128.79 114.313C1145.1 115.213 1159.94 117.215 1174.19 120.219C1190.2 123.622 1205.63 128.527 1220.17 134.933C1235.99 141.94 1250.63 150.649 1263.7 160.96C1277.36 171.67 1289.45 184.083 1299.86 197.897C1309.69 211.01 1318.34 225.625 1325.31 241.441C1326.79 244.444 1327.97 247.647 1329.25 250.75L1330.03 252.752C1331.31 255.755 1332.29 258.859 1333.37 261.761C1333.67 262.562 1333.86 263.363 1334.16 264.164C1335.24 267.367 1336.22 270.47 1337.11 273.573L1338.58 278.478C1338.68 278.779 1338.68 278.979 1338.78 279.179C1338.87 279.479 1338.97 279.68 1338.97 279.98L1339.37 281.682C1339.37 281.782 1339.37 281.782 1339.37 281.882L1343.79 305.506C1343.79 305.606 1343.79 305.706 1343.79 305.806C1344.08 308.208 1344.28 310.611 1344.48 313.013C1345.26 323.224 1345.16 333.434 1344.18 343.544C1343.2 353.054 1341.53 362.463 1338.97 371.572C1336.32 380.882 1332.98 389.891 1328.85 398.399C1320.79 415.116 1309.3 430.932 1295.74 444.046C1283.06 456.258 1268.32 466.668 1252.01 474.777C1244.44 478.58 1236.68 481.884 1228.72 484.687C1221.25 487.289 1213.39 489.592 1205.14 491.493C1190.1 494.897 1174.48 496.999 1158.76 497.7C1154.63 497.9 1149.91 498 1145.49 498ZM774.156 354.956L816.9 377.678C824.172 381.482 831.738 385.286 839.009 388.99C843.136 391.092 847.263 393.194 851.39 395.296L868.685 404.005L912.412 425.026C914.377 425.927 916.343 426.828 918.21 427.729C919.192 428.23 920.175 428.63 921.256 429.13L939.041 437.138L956.827 445.147C957.417 445.347 958.006 445.647 958.596 445.947C959.48 446.348 960.365 446.748 961.249 447.149L968.226 450.152C970.486 451.153 972.844 452.154 975.202 453.055L984.636 456.858L994.167 460.462C1007.24 465.267 1020.31 469.571 1032.98 473.275C1046.34 477.179 1059.91 480.482 1073.27 483.185L1074.64 483.485C1077.49 484.086 1080.54 484.687 1083.49 485.087C1087.42 485.788 1090.66 486.288 1093.9 486.789L1099.21 487.589L1104.42 488.19C1105.11 488.29 1105.79 488.39 1106.38 488.39C1107.46 488.49 1108.55 488.691 1109.63 488.791L1115.03 489.291C1121.22 489.892 1127.9 490.292 1136.65 490.592C1143.13 490.693 1150.9 490.793 1158.66 490.392C1173.89 489.692 1189.12 487.69 1203.76 484.286C1211.72 482.384 1219.39 480.182 1226.56 477.679C1234.22 474.977 1241.79 471.773 1249.06 468.07C1264.78 460.262 1278.84 450.352 1290.92 438.64C1303.89 426.127 1314.8 411.112 1322.46 395.096C1326.4 386.988 1329.64 378.379 1332.19 369.57C1334.65 360.962 1336.32 351.953 1337.2 342.843C1338.19 333.234 1338.29 323.424 1337.5 313.714C1337.3 311.512 1337.11 309.209 1336.81 307.007L1332.39 283.684L1332 282.182C1332 281.982 1331.9 281.782 1331.8 281.581C1331.7 281.381 1331.7 281.081 1331.6 280.881L1330.23 276.076C1329.34 272.973 1328.46 270.07 1327.38 267.067C1327.08 266.266 1326.79 265.465 1326.49 264.664C1325.51 261.661 1324.53 258.859 1323.35 256.056L1322.56 253.954C1321.38 250.85 1320.2 247.947 1318.83 245.045C1312.05 229.629 1303.7 215.515 1294.17 202.902C1284.14 189.589 1272.45 177.576 1259.38 167.366C1246.8 157.456 1232.65 149.048 1217.42 142.241C1203.37 136.034 1188.34 131.23 1172.81 127.926C1158.86 124.923 1144.31 123.121 1128.49 122.12L1122.5 121.82C1120.83 121.72 1119.26 121.62 1117.68 121.62L1106.68 121.52C1104.22 121.52 1101.77 121.62 1099.31 121.72C1098.23 121.72 1097.15 121.82 1096.07 121.82C1095.57 121.82 1095.08 121.82 1094.49 121.82C1093.22 121.82 1092.04 121.92 1090.86 122.02L1077.49 122.921L1074.94 123.121L1064.43 124.223C1062.85 124.323 1061.28 124.523 1059.81 124.723L1054.11 125.424C1053.22 125.524 1052.24 125.724 1051.26 125.824C1048.8 126.124 1046.34 126.525 1043.89 126.925L1033.57 128.627C1031.51 128.927 1029.54 129.328 1027.48 129.728C1026.1 130.028 1024.83 130.229 1023.45 130.529C1018.05 131.53 1012.54 132.731 1007.24 133.932L998.392 135.934L990.237 138.036L982.179 140.339C979.624 141.14 976.971 141.94 974.416 142.841L971.861 143.642C970.682 144.043 969.405 144.543 968.226 144.943C966.064 145.744 963.902 146.445 961.74 147.246C949.359 151.85 936.781 157.056 923.418 163.262C911.921 168.567 900.129 174.473 887.355 181.18C876.448 186.886 865.147 193.092 852.668 200.199C832.426 211.711 811.201 224.324 785.652 239.939L748.017 262.863L735.243 270.67C734.261 271.271 732.983 271.371 731.902 270.871L717.163 264.564L703.308 258.458C661.84 240.14 617.327 220.42 563.381 196.295C552.768 191.591 542.254 186.886 531.642 182.081C496.168 166.265 459.516 149.848 423.159 134.032C423.061 134.032 422.962 133.932 422.962 133.932C422.962 133.932 422.766 133.832 422.766 134.032C422.668 134.133 422.766 134.233 422.864 134.333C445.661 151.25 468.556 167.066 485.949 178.878C496.07 185.785 506.093 192.492 517.983 200.399C526.237 205.905 534.589 211.31 542.745 216.616C545.3 218.217 547.757 219.919 550.312 221.521C585.588 244.344 621.356 266.466 656.534 287.487L677.464 299.399C678.643 300.1 679.331 301.301 679.331 302.603C679.331 303.904 678.643 305.205 677.563 305.906L657.812 318.018C632.853 332.933 610.744 345.546 590.207 356.657C577.924 363.364 567.016 368.97 557.092 373.975C544.219 380.381 533.607 385.486 523.584 389.991C497.446 401.703 475.73 410.011 455.291 416.317C430.037 424.225 407.24 429.03 385.622 431.032C373.831 432.133 362.137 432.334 350.837 431.633C348.675 431.533 346.415 431.333 344.253 431.132C343.566 431.032 342.878 431.032 342.19 430.932C339.832 430.732 337.473 430.432 335.213 430.031L333.543 429.831C328.335 429.13 322.93 428.029 316.641 426.528C305.734 423.925 295.122 419.921 285.197 414.716C284.411 414.315 283.625 413.815 282.839 413.415C282.446 413.214 281.954 412.914 281.561 412.714L279.793 411.713C279.203 411.413 278.712 411.012 278.319 410.712L277.729 410.311C276.648 409.611 275.666 409.01 274.585 408.209C274.585 408.209 274.486 408.209 274.486 408.109L271.342 405.807C270.458 405.206 269.77 404.606 268.984 404.005C268.689 403.705 268.394 403.505 268.001 403.204C267.706 402.904 267.411 402.704 267.215 402.504C266.429 401.803 265.544 401.202 264.758 400.401L261.909 397.699C261.81 397.699 261.81 397.599 261.712 397.499L258.961 394.596C255.03 390.291 251.493 385.887 248.447 381.382C245.302 376.577 242.453 371.472 240.094 366.367C237.834 361.562 235.771 356.057 233.805 349.75C233.609 349.25 233.511 348.749 233.314 348.249C233.019 347.348 232.724 346.347 232.43 345.246L231.349 341.042C231.349 341.042 231.349 340.941 231.349 340.841L230.956 338.939C230.464 336.637 229.875 334.335 229.482 331.932C227.32 320.721 226.141 308.308 225.846 294.995C225.748 287.287 225.944 279.179 226.436 270.971C226.436 270.871 226.436 270.871 226.436 270.771L230.17 237.637C230.366 235.935 231.742 234.534 233.412 234.334C235.083 234.134 236.753 235.235 237.245 236.836C237.441 237.437 237.638 238.037 238.031 238.738C238.031 238.738 238.031 238.838 238.129 238.838C238.62 240.24 292.076 374.675 361.351 365.266H361.449C361.548 365.166 361.842 364.966 362.236 364.165C363.415 361.462 364.987 352.053 353.49 322.823C350.837 316.016 347.594 308.609 344.253 300.801C325.583 257.257 297.283 191.591 284.804 62.8606L283.625 51.1488L273.799 60.7585C230.17 108.306 123.456 222.522 72.9483 258.859C47.0068 277.577 46.6137 285.886 47.6946 288.689C50.839 296.697 76.191 298.499 92.994 296.096C96.1384 295.696 171.113 284.885 210.026 239.539C211.401 237.937 212.777 236.336 214.153 234.634C215.234 233.333 217.101 232.932 218.673 233.733C220.245 234.534 221.031 236.336 220.54 238.037L212.679 269.87C208.159 292.993 206.586 314.114 207.962 334.535C208.846 348.849 211.5 362.763 215.725 375.676C218.083 382.684 220.835 389.39 223.979 395.597C227.222 401.903 231.152 408.109 235.574 414.215C239.406 419.521 244.221 424.926 250.215 430.632L254.244 434.336C255.227 435.137 256.111 435.937 257.094 436.738L258.469 437.839C259.157 438.44 259.845 438.94 260.533 439.541L263.874 442.043C264.955 442.844 266.036 443.645 267.117 444.346C268.001 444.846 268.787 445.447 269.671 446.048C271.932 447.549 274.093 448.95 276.353 450.152C276.943 450.452 277.533 450.852 278.122 451.153C279.105 451.753 280.087 452.254 281.168 452.854L288.342 456.558L295.711 459.861C296.694 460.262 297.677 460.662 298.659 461.063C299.347 461.263 299.937 461.563 300.624 461.863C301.116 462.064 301.705 462.264 302.295 462.564C303.376 462.965 304.457 463.365 305.439 463.765C312.711 466.268 319.294 468.27 325.682 469.872L327.549 470.372C330.202 471.073 333.051 471.673 335.704 472.174L337.375 472.474C340.323 473.075 343.074 473.575 346.022 473.976C359.189 476.078 373.045 477.179 387.489 477.179C387.686 477.179 387.882 477.179 387.981 477.179C412.645 477.179 439.078 473.976 468.557 467.369C492.238 462.064 517.295 454.556 545.202 444.346C557.681 439.741 570.063 434.836 582.051 429.831C592.86 425.327 604.258 420.322 618.113 414.015C653.586 397.999 690.828 378.98 738.486 352.954L753.127 344.945C754.208 344.345 755.584 344.345 756.665 344.945L774.156 354.956ZM1136.35 406.007C1131.74 406.007 1126.53 405.907 1121.12 405.607L1117 405.406C1116.21 405.406 1115.42 405.306 1114.64 405.206C1114.05 405.106 1113.36 405.106 1112.77 405.106L1108.55 404.706L1104.32 404.205C1101.67 403.905 1098.92 403.605 1096.16 403.304H1095.87C1093.71 403.104 1091.55 402.704 1089.38 402.403L1087.32 402.103C1076.51 400.501 1065.31 398.199 1053.03 395.296C1042.12 392.694 1030.62 389.591 1018.63 385.887L1010.09 383.184L1001.54 380.381C999.473 379.681 997.312 378.98 995.248 378.179L988.664 375.877C987.682 375.576 986.699 375.176 985.716 374.776L966.653 367.568L949.064 360.962C948.18 360.661 947.296 360.361 946.509 359.961C944.446 359.16 942.284 358.459 940.221 357.558L896.297 340.241L878.708 333.033C874.286 331.232 869.864 329.43 865.442 327.628C858.858 324.925 851.98 322.122 845.298 319.32L826.53 311.311C825.252 310.711 824.368 309.51 824.27 308.008C824.172 306.607 824.958 305.205 826.235 304.505L844.119 294.595C848.344 292.292 852.57 289.99 856.697 287.688C869.176 280.881 879.985 275.175 889.91 269.97C910.84 259.159 933.44 247.847 956.237 238.138C968.422 233.032 979.133 228.828 988.959 225.525L996.918 222.922H997.017C998.196 222.622 999.375 222.222 1000.55 221.921C1002.03 221.521 1003.5 221.12 1004.88 220.72L1010.77 219.218L1017.46 217.717H1017.55L1020.8 217.116C1047.33 211.911 1069.93 209.008 1090.07 208.207L1094.2 208.007C1095.08 208.007 1095.97 208.007 1096.95 208.007C1097.44 208.007 1097.93 208.007 1098.52 208.007C1099.8 208.007 1101.08 208.007 1102.36 208.007C1103.93 208.007 1105.4 208.007 1106.97 208.007H1107.07L1115.23 208.207C1116.21 208.207 1117.29 208.307 1118.27 208.307L1123.38 208.608C1134.59 209.409 1145.1 210.91 1154.73 213.112C1175.56 217.917 1192.95 225.925 1206.51 236.836C1213.39 242.342 1219.78 248.949 1225.28 256.356C1230.79 263.663 1235.6 271.972 1239.53 280.981C1240.32 282.582 1241 284.284 1241.59 285.886C1241.89 286.587 1242.09 287.187 1242.38 287.888C1243.07 289.489 1243.66 291.191 1244.15 292.793C1244.44 293.594 1244.64 294.294 1244.94 295.095C1245.62 296.897 1246.11 298.799 1246.7 300.601C1246.9 301.301 1247.1 301.902 1247.29 302.603L1248.08 305.406C1248.08 305.506 1248.08 305.506 1248.08 305.606L1248.28 306.407C1248.37 306.807 1248.47 307.107 1248.57 307.508C1248.77 308.108 1248.96 308.809 1249.06 309.51C1250.93 317.818 1251.52 326.126 1250.73 334.034C1249.16 350.151 1242.68 364.065 1231.37 375.176C1220.37 386.387 1204.16 395.096 1184.4 400.301C1174.48 402.804 1164.26 404.506 1153.85 405.306C1148.24 405.807 1142.54 406.007 1137.73 406.107C1137.34 406.007 1136.85 406.007 1136.35 406.007ZM836.356 307.408L848.049 312.413C854.731 315.215 861.512 317.918 868.095 320.621C872.517 322.423 876.939 324.225 881.361 326.026L898.95 333.234L942.874 350.551C944.937 351.352 947.001 352.153 948.966 352.853C949.85 353.154 950.735 353.454 951.619 353.854L969.208 360.461L988.271 367.668C989.254 368.069 990.138 368.369 991.023 368.669L995.248 370.171C996.034 370.471 996.82 370.671 997.508 370.972C999.473 371.672 1001.64 372.473 1003.6 373.074L1012.15 375.877L1020.6 378.579C1032.39 382.183 1043.79 385.286 1054.5 387.789C1066.69 390.692 1077.69 392.894 1088.21 394.495L1090.27 394.796C1092.33 395.096 1094.4 395.396 1096.46 395.697H1096.85C1099.6 395.997 1102.16 396.397 1104.81 396.598L1109.04 397.098L1113.07 397.398C1113.66 397.398 1114.34 397.499 1114.93 397.499C1115.62 397.599 1116.41 397.599 1117.09 397.699L1121.22 397.899C1127.02 398.199 1132.62 398.299 1137.34 398.299C1141.96 398.199 1147.56 397.999 1152.96 397.599C1162.98 396.898 1172.81 395.296 1182.24 392.794C1200.72 387.989 1215.75 379.981 1225.87 369.67C1235.89 359.66 1241.69 347.348 1243.07 333.033C1243.76 325.926 1243.26 318.419 1241.5 310.911V310.811C1241.4 310.31 1241.3 309.81 1241.1 309.209C1241 308.809 1240.91 308.308 1240.81 307.908L1240.42 306.407L1239.92 304.605C1239.73 303.904 1239.53 303.203 1239.33 302.603C1238.84 300.801 1238.35 299.199 1237.76 297.598C1237.47 296.697 1237.17 295.896 1236.88 295.095C1236.39 293.493 1235.89 292.092 1235.31 290.691C1235.01 289.89 1234.72 289.189 1234.42 288.488C1233.83 286.887 1233.24 285.385 1232.55 284.084C1232.55 284.084 1232.55 283.984 1232.46 283.984C1228.72 275.475 1224.2 267.667 1219.09 260.76C1213.79 253.753 1208.09 247.747 1201.6 242.542C1188.93 232.332 1172.52 224.824 1152.76 220.219C1143.53 218.117 1133.31 216.616 1122.5 215.915L1117.39 215.615C1116.41 215.515 1115.52 215.515 1114.64 215.515L1106.38 215.315C1104.91 215.315 1103.44 215.315 1101.96 215.315C1100.68 215.315 1099.41 215.315 1098.13 215.315C1097.64 215.315 1097.05 215.315 1096.46 215.315C1095.67 215.315 1094.89 215.315 1094.1 215.315L1089.88 215.515C1070.12 216.215 1047.82 219.118 1021.68 224.224L1017.55 225.024L1011.85 226.326L1006.16 227.827C1004.78 228.228 1003.4 228.628 1002.03 229.028C1000.85 229.329 999.67 229.729 998.491 230.029L990.63 232.532C981 235.735 970.486 239.839 958.399 244.944C935.799 254.554 913.395 265.765 892.661 276.476C882.835 281.581 871.927 287.387 859.546 294.094C855.419 296.396 851.194 298.699 846.969 301.001L836.356 307.408Z" fill="#FF26A9"/>
</g>
<defs>
<filter id="filter0_ddddddd_201_3" x="0.0873947" y="0.0873947" width="1384.83" height="537.825" filterUnits="userSpaceOnUse" color-interpolation-filters="sRGB">
<feFlood flood-opacity="0" result="BackgroundImageFix"/>
<feColorMatrix in="SourceAlpha" type="matrix" values="0 0 0 0 0 0 0 0 0 0 0 0 0 0 0 0 0 0 127 0" result="hardAlpha"/>
<feOffset/>
<feGaussianBlur stdDeviation="19.9563"/>
<feComposite in2="hardAlpha" operator="out"/>
<feColorMatrix type="matrix" values="0 0 0 0 1 0 0 0 0 0.14902 0 0 0 0 0.662745 0 0 0 0.25 0"/>
<feBlend mode="normal" in2="BackgroundImageFix" result="effect1_dropShadow_201_3"/>
<feColorMatrix in="SourceAlpha" type="matrix" values="0 0 0 0 0 0 0 0 0 0 0 0 0 0 0 0 0 0 127 0" result="hardAlpha"/>
<feOffset/>
<feGaussianBlur stdDeviation="7.98252"/>
<feComposite in2="hardAlpha" operator="out"/>
<feColorMatrix type="matrix" values="0 0 0 0 1 0 0 0 0 0.14902 0 0 0 0 0.662745 0 0 0 0.25 0"/>
<feBlend mode="normal" in2="effect1_dropShadow_201_3" result="effect2_dropShadow_201_3"/>
<feColorMatrix in="SourceAlpha" type="matrix" values="0 0 0 0 0 0 0 0 0 0 0 0 0 0 0 0 0 0 127 0" result="hardAlpha"/>
<feOffset/>
<feGaussianBlur stdDeviation="11.9738"/>
<feComposite in2="hardAlpha" operator="out"/>
<feColorMatrix type="matrix" values="0 0 0 0 1 0 0 0 0 0.14902 0 0 0 0 0.662745 0 0 0 0.25 0"/>
<feBlend mode="normal" in2="effect2_dropShadow_201_3" result="effect3_dropShadow_201_3"/>
<feColorMatrix in="SourceAlpha" type="matrix" values="0 0 0 0 0 0 0 0 0 0 0 0 0 0 0 0 0 0 127 0" result="hardAlpha"/>
<feOffset/>
<feGaussianBlur stdDeviation="15.965"/>
<feComposite in2="hardAlpha" operator="out"/>
<feColorMatrix type="matrix" values="0 0 0 0 1 0 0 0 0 0.14902 0 0 0 0 0.662745 0 0 0 0.25 0"/>
<feBlend mode="normal" in2="effect3_dropShadow_201_3" result="effect4_dropShadow_201_3"/>
<feColorMatrix in="SourceAlpha" type="matrix" values="0 0 0 0 0 0 0 0 0 0 0 0 0 0 0 0 0 0 127 0" result="hardAlpha"/>
<feOffset/>
<feGaussianBlur stdDeviation="15"/>
<feComposite in2="hardAlpha" operator="out"/>
<feColorMatrix type="matrix" values="0 0 0 0 1 0 0 0 0 0.14902 0 0 0 0 0.662745 0 0 0 0.25 0"/>
<feBlend mode="normal" in2="effect4_dropShadow_201_3" result="effect5_dropShadow_201_3"/>
<feColorMatrix in="SourceAlpha" type="matrix" values="0 0 0 0 0 0 0 0 0 0 0 0 0 0 0 0 0 0 127 0" result="hardAlpha"/>
<feOffset dx="11.9738" dy="15.965"/>
<feGaussianBlur stdDeviation="5.98689"/>
<feComposite in2="hardAlpha" operator="out"/>
<feColorMatrix type="matrix" values="0 0 0 0 0 0 0 0 0 0 0 0 0 0 0 0 0 0 1 0"/>
<feBlend mode="normal" in2="effect5_dropShadow_201_3" result="effect6_dropShadow_201_3"/>
<feColorMatrix in="SourceAlpha" type="matrix" values="0 0 0 0 0 0 0 0 0 0 0 0 0 0 0 0 0 0 127 0" result="hardAlpha"/>
<feOffset dx="11.9738" dy="15.965"/>
<feGaussianBlur stdDeviation="1.99563"/>
<feComposite in2="hardAlpha" operator="out"/>
<feColorMatrix type="matrix" values="0 0 0 0 0 0 0 0 0 0 0 0 0 0 0 0 0 0 1 0"/>
<feBlend mode="normal" in2="effect6_dropShadow_201_3" result="effect7_dropShadow_201_3"/>
<feBlend mode="normal" in="SourceGraphic" in2="effect7_dropShadow_201_3" result="shape"/>
</filter>
</defs>
</svg>
